<svg version="1.0" xmlns="http://www.w3.org/2000/svg"
width="256.000000pt" height="256.000000pt" viewBox="0 0 256.000000 256.000000"
preserveAspectRatio="xMidYMid meet" >

<g transform="translate(0.000000, 0.000000) scale(0.1000000, 0.1000000)" >
<circle style="stroke:#7986cb;" cx="1280" cy="1280" r="1175" stroke-width="150" fill="none" />
</g>
<g transform="translate(13.000000,243.000000) scale(0.0900000, -0.0900000)" >
<path style="fill:#7986cb;" d="M1145 2349 c-446 -61 -794 -374 -912 -817 -23 -86 -26 -117 -26 -262
0 -146 3 -176 26 -263 70 -263 230 -491 443 -633 172 -115 347 -171 555 -181
200 -9 366 25 541 113 126 63 285 184 271 207 -3 6 -2 7 4 4 5 -3 26 11 45 31
167 176 278 464 278 722 0 153 -46 344 -116 483 -115 229 -336 434 -569 528
-161 64 -374 91 -540 68z m220 -40 c-150 -14 -293 -77 -386 -170 -139 -138
-163 -344 -64 -539 98 -193 359 -257 591 -145 102 50 193 172 210 282 4 28 11
43 21 43 8 0 52 -19 96 -42 147 -77 287 -233 351 -393 75 -188 75 -412 0 -601
-27 -69 -102 -195 -123 -208 -6 -4 2 13 19 38 124 183 153 442 69 608 -68 134
-246 232 -419 231 -111 0 -178 -29 -261 -112 -73 -74 -104 -131 -126 -235 -31
-147 3 -272 102 -373 l61 -63 -34 -27 c-50 -38 -154 -87 -242 -115 -64 -20
-96 -23 -220 -23 -124 0 -156 3 -220 23 -193 61 -347 175 -453 335 -21 31 -40
64 -44 74 -3 10 13 -10 36 -44 130 -192 350 -307 524 -275 138 26 283 135 344
259 25 53 28 68 28 163 0 97 -2 110 -32 172 -58 123 -194 231 -326 258 -62 13
-136 7 -200 -16 -22 -8 -43 -11 -48 -8 -15 9 -10 189 7 272 52 257 230 474
474 579 92 39 194 62 280 61 l65 -1 -80 -8z"/>
</g>
</svg>
